<svg width="24" height="24" viewBox="0 0 24 24" fill="none" xmlns="http://www.w3.org/2000/svg">
<path d="M19.5659 4.17341C19.8816 4.39216 20.0472 4.77029 19.9878 5.14841L17.9878 18.1484C17.9409 18.4515 17.7566 18.7172 17.4878 18.8672C17.2191 19.0172 16.8972 19.0359 16.6128 18.9172L12.8753 17.364L10.7347 19.6797C10.4566 19.9828 10.0191 20.0828 9.6347 19.9328C9.25033 19.7828 9.00033 19.4109 9.00033 18.9984V16.3859C9.00033 16.2609 9.0472 16.1422 9.13158 16.0515L14.3691 10.3359C14.5503 10.139 14.5441 9.83591 14.3566 9.64841C14.1691 9.46091 13.8659 9.44841 13.6691 9.62653L7.31283 15.2734L4.55345 13.8922C4.2222 13.7265 4.0097 13.3953 4.00033 13.0265C3.99095 12.6578 4.1847 12.314 4.50345 12.1297L18.5034 4.12966C18.8378 3.93904 19.2503 3.95779 19.5659 4.17341Z" fill="white"/>
</svg>
