<svg width="24" height="24" viewBox="0 0 24 24" fill="none" xmlns="http://www.w3.org/2000/svg">
<path d="M4.69125 10.8571C4.0875 10.8571 3.6 10.3929 3.6 9.81786C3.6 9.75 3.6075 9.68571 3.6225 9.61786C3.82125 8.86786 5.355 4 12 4C18.645 4 20.1787 8.86786 20.3775 9.61786C20.3962 9.68571 20.4 9.75 20.4 9.81786C20.4 10.3929 19.9125 10.8571 19.3087 10.8571H4.69125ZM7.8 7.42857C7.8 7.27702 7.73679 7.13167 7.62426 7.02451C7.51174 6.91735 7.35913 6.85714 7.2 6.85714C7.04087 6.85714 6.88826 6.91735 6.77574 7.02451C6.66321 7.13167 6.6 7.27702 6.6 7.42857C6.6 7.58012 6.66321 7.72547 6.77574 7.83263C6.88826 7.9398 7.04087 8 7.2 8C7.35913 8 7.51174 7.9398 7.62426 7.83263C7.73679 7.72547 7.8 7.58012 7.8 7.42857ZM16.8 8C16.9591 8 17.1117 7.9398 17.2243 7.83263C17.3368 7.72547 17.4 7.58012 17.4 7.42857C17.4 7.27702 17.3368 7.13167 17.2243 7.02451C17.1117 6.91735 16.9591 6.85714 16.8 6.85714C16.6409 6.85714 16.4883 6.91735 16.3757 7.02451C16.2632 7.13167 16.2 7.27702 16.2 7.42857C16.2 7.58012 16.2632 7.72547 16.3757 7.83263C16.4883 7.9398 16.6409 8 16.8 8ZM12.6 6.28571C12.6 6.13416 12.5368 5.98882 12.4243 5.88165C12.3117 5.77449 12.1591 5.71429 12 5.71429C11.8409 5.71429 11.6883 5.77449 11.5757 5.88165C11.4632 5.98882 11.4 6.13416 11.4 6.28571C11.4 6.43727 11.4632 6.58261 11.5757 6.68978C11.6883 6.79694 11.8409 6.85714 12 6.85714C12.1591 6.85714 12.3117 6.79694 12.4243 6.68978C12.5368 6.58261 12.6 6.43727 12.6 6.28571ZM3 13.7143C3 12.7679 3.80625 12 4.8 12H19.2C20.1938 12 21 12.7679 21 13.7143C21 14.6607 20.1938 15.4286 19.2 15.4286H4.8C3.80625 15.4286 3 14.6607 3 13.7143ZM3.6 17.1429C3.6 16.8286 3.87 16.5714 4.2 16.5714H19.8C20.13 16.5714 20.4 16.8286 20.4 17.1429V17.7143C20.4 18.975 19.3238 20 18 20H6C4.67625 20 3.6 18.975 3.6 17.7143V17.1429Z" fill="#FFFFFF" />
</svg>
