<svg width="24" height="24" viewBox="0 0 24 24" fill="none" xmlns="http://www.w3.org/2000/svg">
<path d="M2.66667 2.3335C1.19583 2.3335 0 3.52933 0 5.00016V18.3335C0 19.8043 1.19583 21.0002 2.66667 21.0002H21.3333C22.8042 21.0002 24 19.8043 24 18.3335V5.00016C24 3.52933 22.8042 2.3335 21.3333 2.3335H2.66667ZM6 13.0002H8.66667C10.5083 13.0002 12 14.4918 12 16.3335C12 16.7002 11.7 17.0002 11.3333 17.0002H3.33333C2.96667 17.0002 2.66667 16.7002 2.66667 16.3335C2.66667 14.4918 4.15833 13.0002 6 13.0002ZM10 9.00016C10 10.471 8.80417 11.6668 7.33333 11.6668C5.8625 11.6668 4.66667 10.471 4.66667 9.00016C4.66667 7.52933 5.8625 6.3335 7.33333 6.3335C8.80417 6.3335 10 7.52933 10 9.00016ZM15.3333 7.66683H20.6667C21.0333 7.66683 21.3333 7.96683 21.3333 8.3335C21.3333 8.70016 21.0333 9.00016 20.6667 9.00016H15.3333C14.9667 9.00016 14.6667 8.70016 14.6667 8.3335C14.6667 7.96683 14.9667 7.66683 15.3333 7.66683ZM15.3333 10.3335H20.6667C21.0333 10.3335 21.3333 10.6335 21.3333 11.0002C21.3333 11.3668 21.0333 11.6668 20.6667 11.6668H15.3333C14.9667 11.6668 14.6667 11.3668 14.6667 11.0002C14.6667 10.6335 14.9667 10.3335 15.3333 10.3335ZM15.3333 13.0002H20.6667C21.0333 13.0002 21.3333 13.3002 21.3333 13.6668C21.3333 14.0335 21.0333 14.3335 20.6667 14.3335H15.3333C14.9667 14.3335 14.6667 14.0335 14.6667 13.6668C14.6667 13.3002 14.9667 13.0002 15.3333 13.0002Z" fill="#FFFFFF"/>
</svg>
