<svg width="161" height="24" viewBox="0 0 161 24" fill="none" xmlns="http://www.w3.org/2000/svg">
<rect x="15" y="3.75" width="3" height="15" rx="1" fill="white"/>
<path d="M21 4.75C21 4.19772 21.4477 3.75 22 3.75H23C23.5523 3.75 24 4.19771 24 4.75V7.25522C24.6819 6.93127 25.4448 6.75 26.25 6.75C29.1495 6.75 31.5 9.1005 31.5 12V17.75C31.5 18.3023 31.0523 18.75 30.5 18.75H29.5C28.9477 18.75 28.5 18.3023 28.5 17.75V12C28.5 10.7574 27.4926 9.75 26.25 9.75C25.0074 9.75 24 10.7574 24 12V17.75C24 18.3023 23.5523 18.75 23 18.75H22C21.4477 18.75 21 18.3023 21 17.75V4.75Z" fill="white"/>
<path fill-rule="evenodd" clip-rule="evenodd" d="M39.75 18.75C43.0637 18.75 45.75 16.0637 45.75 12.75C45.75 9.43629 43.0637 6.75 39.75 6.75C36.4363 6.75 33.75 9.43629 33.75 12.75C33.75 16.0637 36.4363 18.75 39.75 18.75ZM39.75 15.75C41.4069 15.75 42.75 14.4069 42.75 12.75C42.75 11.0931 41.4069 9.75 39.75 9.75C38.0931 9.75 36.75 11.0931 36.75 12.75C36.75 14.4069 38.0931 15.75 39.75 15.75Z" fill="white"/>
<path d="M49 18.75C48.4477 18.75 48 18.3023 48 17.75V7.5C48 7.08579 48.3358 6.75 48.75 6.75V6.75L49.566 7.83795C50.3534 7.16025 51.3779 6.75044 52.4982 6.75H54.5C55.0523 6.75 55.5 7.19772 55.5 7.75V8.75C55.5 9.30228 55.0523 9.75 54.5 9.75H53.25C52.0074 9.75 51 10.7574 51 12V17.75C51 18.3023 50.5523 18.75 50 18.75H49Z" fill="white"/>
<path d="M65.25 4.75C65.25 4.19772 65.6977 3.75 66.25 3.75H67.25C67.8023 3.75 68.25 4.19772 68.25 4.75V10.9375L70.7637 4.39152C70.9121 4.00507 71.2832 3.75 71.6972 3.75H72.7948C73.4964 3.75 73.9798 4.45355 73.7283 5.10848L73.098 6.75H74.2648C74.7022 6.75 75.0888 7.03425 75.2193 7.45172L78.3443 17.4517C78.5455 18.0957 78.0644 18.75 77.3898 18.75H76.1102C75.6728 18.75 75.2862 18.4658 75.1557 18.0483L72.2859 8.86486L68.7363 18.1085C68.5879 18.4949 68.2168 18.75 67.8028 18.75H66.25C65.6977 18.75 65.25 18.3023 65.25 17.75V4.75Z" fill="white"/>
<path fill-rule="evenodd" clip-rule="evenodd" d="M85.5 18.75C88.8137 18.75 91.5 16.0637 91.5 12.75C91.5 9.43629 88.8137 6.75 85.5 6.75C82.1863 6.75 79.5 9.43629 79.5 12.75C79.5 16.0637 82.1863 18.75 85.5 18.75ZM85.5 15.75C87.1569 15.75 88.5 14.4069 88.5 12.75C88.5 11.0931 87.1569 9.75 85.5 9.75C83.8431 9.75 82.5 11.0931 82.5 12.75C82.5 14.4069 83.8431 15.75 85.5 15.75Z" fill="white"/>
<path d="M93 9.75C93 8.09315 94.3431 6.75 96 6.75H101.75C102.302 6.75 102.75 7.19772 102.75 7.75V8.75C102.75 9.30228 102.302 9.75 101.75 9.75H96.75C96.3358 9.75 96 10.0858 96 10.5C96 10.9142 96.3358 11.25 96.75 11.25L100.5 11.25C102.157 11.25 103.5 12.5931 103.5 14.25V15.75C103.5 17.4069 102.157 18.75 100.5 18.75H94C93.4477 18.75 93 18.3023 93 17.75V16.75C93 16.1977 93.4477 15.75 94 15.75H99.75C100.164 15.75 100.5 15.4142 100.5 15C100.5 14.5858 100.164 14.25 99.75 14.25H96C94.3431 14.25 93 12.9069 93 11.25V9.75Z" fill="white"/>
<path d="M109.902 18.75H109.485C109.048 18.75 108.661 18.4658 108.531 18.0483L105.406 8.04827C105.204 7.40434 105.686 6.75 106.36 6.75L107.64 6.75C108.077 6.75 108.464 7.03425 108.594 7.45173L111.128 15.5583L114.264 7.39152C114.412 7.00507 114.783 6.75 115.197 6.75H116.295C116.996 6.75 117.48 7.45355 117.228 8.10848L112.236 21.1085C112.088 21.4949 111.717 21.75 111.303 21.75H110.205C109.504 21.75 109.02 21.0464 109.272 20.3915L109.902 18.75Z" fill="white"/>
<path d="M120.25 18.75C119.698 18.75 119.25 18.3023 119.25 17.75V7.5C119.25 7.08579 119.586 6.75 120 6.75V6.75L120.816 7.83795C121.603 7.16025 122.628 6.75044 123.748 6.75H125.75C126.302 6.75 126.75 7.19772 126.75 7.75V8.75C126.75 9.30228 126.302 9.75 125.75 9.75H124.5C123.257 9.75 122.25 10.7574 122.25 12V17.75C122.25 18.3023 121.802 18.75 121.25 18.75H120.25Z" fill="white"/>
<path d="M130.5 6C131.536 6 132.375 5.16053 132.375 4.125C132.375 3.08947 131.536 2.25 130.5 2.25C129.464 2.25 128.625 3.08947 128.625 4.125C128.625 5.16053 129.464 6 130.5 6Z" fill="white"/>
<path d="M131 18.75C131.552 18.75 132 18.3023 132 17.75V7.75C132 7.19772 131.552 6.75 131 6.75H130C129.448 6.75 129 7.19772 129 7.75V17.75C129 18.3023 129.448 18.75 130 18.75H131Z" fill="white"/>
<path d="M137.651 14.25C138.17 15.1467 139.14 15.75 140.25 15.75H142.25C142.802 15.75 143.25 16.1977 143.25 16.75V17.75C143.25 18.3023 142.802 18.75 142.25 18.75H140.25C136.936 18.75 134.25 16.0637 134.25 12.75C134.25 9.43629 136.936 6.75 140.25 6.75H142.25C142.802 6.75 143.25 7.19772 143.25 7.75V8.75C143.25 9.30228 142.802 9.75 142.25 9.75H140.25C139.14 9.75 138.17 10.3533 137.651 11.25H142.25C142.802 11.25 143.25 11.6977 143.25 12.25V13.25C143.25 13.8023 142.802 14.25 142.25 14.25H137.651Z" fill="white"/>
<path d="M148.281 18.0483C148.411 18.4658 148.798 18.75 149.235 18.75H152.64C153.077 18.75 153.464 18.4658 153.594 18.0483L156.719 8.04827C156.921 7.40434 156.439 6.75 155.765 6.75H154.485C154.048 6.75 153.661 7.03425 153.531 7.45173L150.938 15.75L148.344 7.45173C148.214 7.03425 147.827 6.75 147.39 6.75H146.11C145.436 6.75 144.954 7.40434 145.156 8.04827L148.281 18.0483Z" fill="white"/>
<rect x="3.75" y="5.00769" width="11.25" height="3.75" fill="#002BFF"/>
<rect x="3.75" y="8.75769" width="11.25" height="3.75" fill="#FFEA00"/>
</svg>
